<svg width="91" height="1025" viewBox="0 0 91 1025" fill="none" xmlns="http://www.w3.org/2000/svg">
<circle cx="79" cy="27" r="8" fill="#BABABA"/>
<circle cx="79" cy="70" r="8" fill="#BABABA"/>
<circle cx="79" cy="113" r="8" fill="#BABABA"/>
<circle cx="79" cy="156" r="8" fill="#BABABA"/>
<circle cx="79" cy="199" r="8" fill="#BABABA"/>
<circle cx="79" cy="242" r="8" fill="#BABABA"/>
<circle cx="79" cy="285" r="8" fill="#BABABA"/>
<circle cx="79" cy="328" r="8" fill="#BABABA"/>
<circle cx="79" cy="371" r="8" fill="#BABABA"/>
<circle cx="79" cy="414" r="8" fill="#BABABA"/>
<circle cx="79" cy="457" r="8" fill="#BABABA"/>
<circle cx="79" cy="500" r="8" fill="#BABABA"/>
<circle cx="79" cy="543" r="8" fill="#BABABA"/>
<circle cx="79" cy="586" r="8" fill="#BABABA"/>
<circle cx="79" cy="629" r="8" fill="#BABABA"/>
<circle cx="79" cy="672" r="8" fill="#BABABA"/>
<circle cx="79" cy="715" r="8" fill="#BABABA"/>
<circle cx="79" cy="758" r="8" fill="#BABABA"/>
<circle cx="79" cy="801" r="8" fill="#BABABA"/>
<circle cx="79" cy="844" r="8" fill="#BABABA"/>
<circle cx="79" cy="887" r="8" fill="#BABABA"/>
<circle cx="79" cy="930" r="8" fill="#BABABA"/>
<circle cx="79" cy="973" r="8" fill="#BABABA"/>
<circle cx="79" cy="1016" r="8" fill="#BABABA"/>
<circle cx="12" cy="24" r="8" fill="#BABABA"/>
<circle cx="12" cy="67" r="8" fill="#BABABA"/>
<circle cx="12" cy="110" r="8" fill="#BABABA"/>
<circle cx="12" cy="153" r="8" fill="#BABABA"/>
<circle cx="12" cy="196" r="8" fill="#BABABA"/>
<circle cx="12" cy="239" r="8" fill="#BABABA"/>
<circle cx="12" cy="282" r="8" fill="#BABABA"/>
<circle cx="12" cy="325" r="8" fill="#BABABA"/>
<circle cx="12" cy="368" r="8" fill="#BABABA"/>
<circle cx="12" cy="411" r="8" fill="#BABABA"/>
<circle cx="12" cy="454" r="8" fill="#BABABA"/>
<circle cx="12" cy="497" r="8" fill="#BABABA"/>
<circle cx="12" cy="540" r="8" fill="#BABABA"/>
<circle cx="12" cy="583" r="8" fill="#BABABA"/>
<circle cx="12" cy="626" r="8" fill="#BABABA"/>
<circle cx="12" cy="669" r="8" fill="#BABABA"/>
<circle cx="12" cy="712" r="8" fill="#BABABA"/>
<circle cx="12" cy="755" r="8" fill="#BABABA"/>
<circle cx="12" cy="798" r="8" fill="#BABABA"/>
<circle cx="12" cy="841" r="8" fill="#BABABA"/>
<circle cx="12" cy="884" r="8" fill="#BABABA"/>
<circle cx="12" cy="927" r="8" fill="#BABABA"/>
<circle cx="12" cy="970" r="8" fill="#BABABA"/>
<circle cx="12" cy="1013" r="8" fill="#BABABA"/>
<path d="M7 27.2947C20.2486 8.96134 53.0966 -16.7053 78.5 27.2947" stroke="black" stroke-width="5"/>
<path d="M7 70.5894C20.2486 52.256 53.0966 26.5894 78.5 70.5894" stroke="black" stroke-width="5"/>
<path d="M7 113.884C20.2486 95.5507 53.0966 69.884 78.5 113.884" stroke="black" stroke-width="5"/>
<path d="M7 157.179C20.2486 138.845 53.0966 113.179 78.5 157.179" stroke="black" stroke-width="5"/>
<path d="M7 200.473C20.2486 182.14 53.0966 156.473 78.5 200.473" stroke="black" stroke-width="5"/>
<path d="M7 243.768C20.2486 225.435 53.0966 199.768 78.5 243.768" stroke="black" stroke-width="5"/>
<path d="M7 287.063C20.2486 268.729 53.0966 243.063 78.5 287.063" stroke="black" stroke-width="5"/>
<path d="M7 330.357C20.2486 312.024 53.0966 286.357 78.5 330.357" stroke="black" stroke-width="5"/>
<path d="M7 373.652C20.2486 355.319 53.0966 329.652 78.5 373.652" stroke="black" stroke-width="5"/>
<path d="M7 416.947C20.2486 398.613 53.0966 372.947 78.5 416.947" stroke="black" stroke-width="5"/>
<path d="M7 460.241C20.2486 441.908 53.0966 416.241 78.5 460.241" stroke="black" stroke-width="5"/>
<path d="M7 503.536C20.2486 485.203 53.0966 459.536 78.5 503.536" stroke="black" stroke-width="5"/>
<path d="M7 546.831C20.2486 528.497 53.0966 502.831 78.5 546.831" stroke="black" stroke-width="5"/>
<path d="M7 590.125C20.2486 571.792 53.0966 546.125 78.5 590.125" stroke="black" stroke-width="5"/>
<path d="M7 633.42C20.2486 615.087 53.0966 589.42 78.5 633.42" stroke="black" stroke-width="5"/>
<path d="M7 676.715C20.2486 658.382 53.0966 632.715 78.5 676.715" stroke="black" stroke-width="5"/>
<path d="M7 720.01C20.2486 701.676 53.0966 676.01 78.5 720.01" stroke="black" stroke-width="5"/>
<path d="M7 763.304C20.2486 744.971 53.0966 719.304 78.5 763.304" stroke="black" stroke-width="5"/>
<path d="M7 806.599C20.2486 788.266 53.0966 762.599 78.5 806.599" stroke="black" stroke-width="5"/>
<path d="M7 849.894C20.2486 831.56 53.0966 805.894 78.5 849.894" stroke="black" stroke-width="5"/>
<path d="M7 893.188C20.2486 874.855 53.0966 849.188 78.5 893.188" stroke="black" stroke-width="5"/>
<path d="M7 936.483C20.2486 918.15 53.0966 892.483 78.5 936.483" stroke="black" stroke-width="5"/>
<path d="M7 979.778C20.2486 961.444 53.0966 935.778 78.5 979.778" stroke="black" stroke-width="5"/>
<path d="M7 1023.07C20.2486 1004.74 53.0966 979.072 78.5 1023.07" stroke="black" stroke-width="5"/>
</svg>
