<svg width="161" height="59" viewBox="0 0 161 59" fill="none" xmlns="http://www.w3.org/2000/svg">
<path d="M2.10744 16.6736V13.2645H25.9091V16.6736H15.9298V45H12.0868V16.6736H2.10744ZM40.4831 13.2645V45H36.6401V13.2645H40.4831ZM52.9884 45V13.2645H56.8314V29.0083H57.2033L71.4595 13.2645H76.4802L63.1537 27.5826L76.4802 45H71.8314L60.7983 30.2479L56.8314 34.7107V45H52.9884ZM86.2543 45V13.2645H90.0973V41.5909H104.849V45H86.2543ZM115.6 45V13.2645H134.753V16.6736H119.443V27.3967H133.761V30.8058H119.443V41.5909H135.001V45H115.6Z" fill="black"/>
<path d="M7.10744 16.6736V13.2645H30.9091V16.6736H20.9298V45H17.0868V16.6736H7.10744ZM45.4831 13.2645V45H41.6401V13.2645H45.4831ZM57.9884 45V13.2645H61.8314V29.0083H62.2033L76.4595 13.2645H81.4802L68.1537 27.5826L81.4802 45H76.8314L65.7983 30.2479L61.8314 34.7107V45H57.9884ZM91.2543 45V13.2645H95.0973V41.5909H109.849V45H91.2543ZM120.6 45V13.2645H139.753V16.6736H124.443V27.3967H138.761V30.8058H124.443V41.5909H140.001V45H120.6Z" fill="black"/>
</svg>
