<svg width="139" height="48" viewBox="0 0 139 48" fill="none" xmlns="http://www.w3.org/2000/svg">
<path d="M1.93771 14.9549V11.8203H23.8225V14.9549H14.6468V41H11.1133V14.9549H1.93771ZM37.2227 11.8203V41H33.6893V11.8203H37.2227ZM48.7209 41V11.8203H52.2544V26.2962H52.5963L65.7044 11.8203H70.3207L58.0675 24.9854L70.3207 41H66.0463L55.9018 27.436L52.2544 31.5394V41H48.7209ZM79.3077 41V11.8203H82.8411V37.8655H96.4051V41H79.3077ZM106.29 41V11.8203H123.9V14.9549H109.823V24.8144H122.988V27.9489H109.823V37.8655H124.128V41H106.29Z" fill="white"/>
<path d="M7.93771 14.9549V11.8203H29.8225V14.9549H20.6468V41H17.1133V14.9549H7.93771ZM43.2227 11.8203V41H39.6893V11.8203H43.2227ZM54.7209 41V11.8203H58.2544V26.2962H58.5963L71.7044 11.8203H76.3207L64.0675 24.9854L76.3207 41H72.0463L61.9018 27.436L58.2544 31.5394V41H54.7209ZM85.3077 41V11.8203H88.8411V37.8655H102.405V41H85.3077ZM112.29 41V11.8203H129.9V14.9549H115.823V24.8144H128.988V27.9489H115.823V37.8655H130.128V41H112.29Z" fill="white"/>
</svg>
